<svg width="63" height="63" viewBox="0 0 63 63" fill="none" xmlns="http://www.w3.org/2000/svg">
<rect x="0.5" y="0.5" width="62" height="62" rx="31" fill="white"/>
<path d="M22.8984 25.9473C22.8984 23.7324 23.6953 21.8926 25.2891 20.4277C26.8828 18.9512 28.875 18.2129 31.2656 18.2129C33.5273 18.2129 35.4434 18.8867 37.0137 20.2344C38.584 21.582 39.3691 23.2285 39.3691 25.1738C39.3691 26.5801 38.9824 27.9336 38.209 29.2344C37.4355 30.5352 35.9824 32.2871 33.8496 34.4902L27.4336 41.1172V41.1875H39.791V44H23.0566V41.8203L31.9863 32.416C33.6855 30.623 34.8105 29.2637 35.3613 28.3379C35.9238 27.4121 36.2051 26.4219 36.2051 25.3672C36.2051 24.1484 35.7129 23.1113 34.7285 22.2559C33.7559 21.4004 32.5723 20.9727 31.1777 20.9727C29.6895 20.9727 28.4473 21.4473 27.4512 22.3965C26.4551 23.3457 25.957 24.5293 25.957 25.9473V25.9648H22.8984V25.9473Z" fill="#0D1C41"/>
<rect x="0.5" y="0.5" width="62" height="62" rx="31" stroke="#4A607A"/>
</svg>
