<svg width="43" height="43" viewBox="0 0 43 43" fill="none" xmlns="http://www.w3.org/2000/svg">
<rect x="0.5" y="0.5" width="42" height="42" rx="21" fill="white"/>
<path d="M15.2656 17.9648C15.2656 16.4883 15.7969 15.2617 16.8594 14.2852C17.9219 13.3008 19.25 12.8086 20.8438 12.8086C22.3516 12.8086 23.6289 13.2578 24.6758 14.1562C25.7227 15.0547 26.2461 16.1523 26.2461 17.4492C26.2461 18.3867 25.9883 19.2891 25.4727 20.1562C24.957 21.0234 23.9883 22.1914 22.5664 23.6602L18.2891 28.0781V28.125H26.5273V30H15.3711V28.5469L21.3242 22.2773C22.457 21.082 23.207 20.1758 23.5742 19.5586C23.9492 18.9414 24.1367 18.2812 24.1367 17.5781C24.1367 16.7656 23.8086 16.0742 23.1523 15.5039C22.5039 14.9336 21.7148 14.6484 20.7852 14.6484C19.793 14.6484 18.9648 14.9648 18.3008 15.5977C17.6367 16.2305 17.3047 17.0195 17.3047 17.9648V17.9766H15.2656V17.9648Z" fill="#0D1C41"/>
<rect x="0.5" y="0.5" width="42" height="42" rx="21" stroke="#4A607A"/>
</svg>
